<svg id="Capa_1" data-name="Capa 1" xmlns="http://www.w3.org/2000/svg" viewBox="0 0 278.75 242.24"><defs><style>.cls-1{fill:none;}.cls-1,.cls-2{stroke:#9cd2c9;stroke-miterlimit:10;stroke-width:6px;}.cls-2{fill:#7bcad8;}</style></defs><path class="cls-1" d="M141.81,36.72H98.33l3.31,8A104.64,104.64,0,0,1,141.81,36.72Z" transform="translate(-2.59 -31.43)"/><path class="cls-1" d="M185.29,36.72H141.81a104.69,104.69,0,0,1,40.18,8Z" transform="translate(-2.59 -31.43)"/><rect class="cls-1" x="246.66" y="171.7" height="0.07" transform="translate(-9 302.45) rotate(-67.49)"/><line class="cls-1" x1="244.1" y1="52.24" x2="244.06" y2="52.26"/><path class="cls-1" d="M246.79,98.21,216,67.47a105.11,105.11,0,0,1,22.77,34.05Z" transform="translate(-2.59 -31.43)"/><path class="cls-1" d="M98.33,36.72,67.59,67.47A105.11,105.11,0,0,1,101.64,44.7Z" transform="translate(-2.59 -31.43)"/><path class="cls-1" d="M67.59,67.47,36.84,98.21l8,3.31A105.11,105.11,0,0,1,67.59,67.47Z" transform="translate(-2.59 -31.43)"/><path class="cls-1" d="M36.84,98.21v43.48a104.68,104.68,0,0,1,8-40.17Z" transform="translate(-2.59 -31.43)"/><path class="cls-1" d="M216,67.47,185.29,36.72l-3.3,8A105.11,105.11,0,0,1,216,67.47Z" transform="translate(-2.59 -31.43)"/><path class="cls-1" d="M36.84,141.69v43.49l8-3.31A104.69,104.69,0,0,1,36.84,141.69Z" transform="translate(-2.59 -31.43)"/><path class="cls-1" d="M246.79,185.18V141.69a104.69,104.69,0,0,1-8,40.18Z" transform="translate(-2.59 -31.43)"/><path class="cls-1" d="M238.81,101.52a104.68,104.68,0,0,1,8,40.17V98.21Z" transform="translate(-2.59 -31.43)"/><path class="cls-1" d="M216,67.47Z" transform="translate(-2.59 -31.43)"/><path class="cls-1" d="M168.69,76.82l38,38,32.12-13.3a105.11,105.11,0,0,0-22.77-34h0A105.11,105.11,0,0,0,182,44.7Z" transform="translate(-2.59 -31.43)"/><path class="cls-1" d="M76.94,114.82l38-38L101.64,44.7a105.18,105.18,0,0,0-56.82,56.82Z" transform="translate(-2.59 -31.43)"/><path class="cls-1" d="M114.94,76.82h53.75L182,44.7a105.12,105.12,0,0,0-80.35,0Z" transform="translate(-2.59 -31.43)"/><path class="cls-1" d="M206.69,114.82h0v53.75h0l32.12,13.3a105.12,105.12,0,0,0,0-80.35Z" transform="translate(-2.59 -31.43)"/><path class="cls-1" d="M76.94,168.57h0V114.82h0l-32.12-13.3a105.12,105.12,0,0,0,0,80.35Z" transform="translate(-2.59 -31.43)"/><polygon class="cls-1" points="244.2 153.75 204.1 137.14 204.1 83.4 244.2 66.79 244.2 153.75"/><polygon class="cls-1" points="182.7 5.3 166.1 45.39 112.35 45.39 95.74 5.3 182.7 5.3"/><polygon class="cls-1" points="244.19 66.79 204.1 83.4 166.1 45.39 182.7 5.3 244.19 66.79"/><polygon class="cls-1" points="34.25 153.81 74.35 137.2 74.35 83.46 34.25 66.85 34.25 153.81"/><polygon class="cls-1" points="34.25 66.85 74.35 83.46 112.35 45.45 95.74 5.36 34.25 66.85"/><polygon class="cls-2" points="93.84 239.24 93.84 239.24 93.84 239.24 93.84 239.24"/><polygon class="cls-2" points="93.84 239.24 93.84 239.24 93.84 239.24 93.84 239.24"/><line class="cls-2" x1="93.84" y1="239.24" x2="93.84" y2="239.24"/><path class="cls-1" d="M249.15,57.5V239.07a22.58,22.58,0,0,1-.15,2.61H190.28L216,215.92l30.74-30.74h0v-87L216,67.47,185.29,36.72h-87L67.59,67.47h0l-.38.39-.06.06L36.84,98.21v87h0l0,0h0l30.32,30.32.37.38h0l25.76,25.76H34.94a22.58,22.58,0,0,1-.16-2.61V57.5A22.38,22.38,0,0,1,57.17,35.12h169.6A22.38,22.38,0,0,1,249.15,57.5Z" transform="translate(-2.59 -31.43)"/><polygon class="cls-1" points="65 184.5 64.99 184.49 34.25 153.75 34.25 153.75 90.76 210.25 90.76 210.25 65 184.5"/><polygon class="cls-1" points="213.45 184.5 187.69 210.25 187.69 210.25 244.2 153.75 244.19 153.75 213.45 184.49 213.45 184.5"/><path class="cls-1" d="M216,67.47Z" transform="translate(-2.59 -31.43)"/><path class="cls-1" d="M67.58,67.47h0Z" transform="translate(-2.59 -31.43)"/><path class="cls-1" d="M67.59,215.92h0Z" transform="translate(-2.59 -31.43)"/><path class="cls-1" d="M216,215.92Z" transform="translate(-2.59 -31.43)"/><path class="cls-1" d="M246.72,185.15h0l.07,0h0V141.69a104.47,104.47,0,0,1-8,40.18Z" transform="translate(-2.59 -31.43)"/><path class="cls-1" d="M36.84,141.69v43.48h0l8-3.3A104.65,104.65,0,0,1,36.84,141.69Z" transform="translate(-2.59 -31.43)"/><path class="cls-1" d="M185.29,36.72H141.81A104.64,104.64,0,0,1,216,67.47Z" transform="translate(-2.59 -31.43)"/><path class="cls-1" d="M98.33,36.72,67.59,67.47a104.64,104.64,0,0,1,74.22-30.75Z" transform="translate(-2.59 -31.43)"/><path class="cls-1" d="M36.84,98.21v43.48A104.67,104.67,0,0,1,67.58,67.47Z" transform="translate(-2.59 -31.43)"/><path class="cls-1" d="M246.79,98.21,216,67.47a104.64,104.64,0,0,1,30.75,74.22Z" transform="translate(-2.59 -31.43)"/><path class="cls-1" d="M66.47,214.78,36.9,185.21l7.93-3.28,0-.06-8,3.3,30.74,30.75Z" transform="translate(-2.59 -31.43)"/><path class="cls-1" d="M93.37,241.68h0L67.59,215.92c.37.38.76.75,1.14,1.11Z" transform="translate(-2.59 -31.43)"/><path class="cls-1" d="M216,215.92l-25.76,25.76h-.09l23.37-23.37C214.4,217.53,215.23,216.73,216,215.92Z" transform="translate(-2.59 -31.43)"/><path class="cls-1" d="M218.43,213.44c-.78.84-1.58,1.67-2.39,2.48l30.75-30.75-.07,0Z" transform="translate(-2.59 -31.43)"/><path class="cls-1" d="M246.79,141.69q0,4-.3,7.94c-.19,2.61-.48,5.21-.87,7.77a103.91,103.91,0,0,1-5,19.77c-.57,1.59-1.18,3.15-1.82,4.7l-32.12-13.3L184,191.24v-17a5.69,5.69,0,0,0-5.69-5.69H105.61a5.68,5.68,0,0,0-5.69,5.69v17.29l-23-23-32.12,13.3h0A103.93,103.93,0,0,1,38,157.4c-.26-1.71-.47-3.43-.65-5.16-.34-3.47-.52-7-.52-10.55,0-1.12,0-2.23.06-3.34,0-.69,0-1.38.08-2.06.09-1.79.22-3.57.4-5.33s.38-3.29.62-4.92c0,0,0,0,0-.06.13-.85.27-1.7.42-2.54.44-2.54,1-5,1.61-7.52a103.08,103.08,0,0,1,4.75-14.35.08.08,0,0,1,0,0,101.86,101.86,0,0,1,4.45-9.38l1.25-2.26q1.91-3.37,4.06-6.57t4.52-6.24c.53-.68,1.07-1.35,1.61-2,1.53-1.87,3.13-3.68,4.78-5.43l.32-.33c.44-.46.88-.93,1.34-1.38l.06-.06.38-.39h0q1-1,2-2l0,0a105.86,105.86,0,0,1,9.61-8.08c.69-.51,1.38-1,2.08-1.51s1.55-1.09,2.34-1.6q2-1.38,4.13-2.62c.73-.44,1.48-.87,2.22-1.3l2.26-1.25q4.55-2.45,9.35-4.44h0q3.48-1.45,7.08-2.63T116,39.92q3.72-.95,7.53-1.61c.84-.15,1.69-.29,2.54-.42h.06c1.63-.24,3.27-.45,4.92-.62s3.54-.31,5.33-.4c.68,0,1.37-.07,2.06-.08,1.11,0,2.22-.06,3.34-.06s2.21,0,3.31.05c.7,0,1.4,0,2.09.09,1.79.09,3.57.22,5.33.4,1.57.16,3.13.36,4.67.59,1,.13,1.92.29,2.86.46q3.81.66,7.52,1.61t7.32,2.14c2.4.78,4.76,1.67,7.08,2.63l.68.28a101.26,101.26,0,0,1,11,5.42l2.23,1.3q2.1,1.25,4.13,2.62l2.34,1.6c.7.49,1.39,1,2.08,1.51l4.18,3.27q2.91,2.4,5.62,5L216,67.47a105,105,0,0,1,10.05,11.64c.52.69,1,1.38,1.51,2.08s1.17,1.67,1.72,2.52c.38.56.75,1.13,1.11,1.7l.21.33c.4.63.79,1.27,1.18,1.92s.88,1.48,1.3,2.22.84,1.51,1.25,2.26a100.46,100.46,0,0,1,4.45,9.37h0c.32.77.64,1.55.93,2.34s.59,1.57.88,2.36a96.24,96.24,0,0,1,3,9.7c.64,2.47,1.17,5,1.61,7.52.15.84.29,1.69.42,2.54,0,0,0,0,0,.06.37,2.5.66,5,.85,7.58.07.88.13,1.78.17,2.67,0,.68.07,1.37.08,2.06C246.77,139.46,246.79,140.57,246.79,141.69Z" transform="translate(-2.59 -31.43)"/><path class="cls-1" d="M44.82,181.87h0l0,.06h0Z" transform="translate(-2.59 -31.43)"/><path class="cls-1" d="M67.84,216.15l-.48-.48-.89-.89,1.11,1.14h0c.37.38.76.75,1.14,1.11Z" transform="translate(-2.59 -31.43)"/><path class="cls-1" d="M213.85,218l-.29.29c.84-.78,1.67-1.58,2.48-2.39h0c.81-.81,1.61-1.64,2.39-2.48l-.29.29Q216.06,215.94,213.85,218Z" transform="translate(-2.59 -31.43)"/><path class="cls-1" d="M218.14,213.73,213.85,218Q216.06,215.94,218.14,213.73Z" transform="translate(-2.59 -31.43)"/><rect class="cls-1" x="179.32" y="179.9" width="32.07" transform="translate(-44.28 268.22) rotate(-69.44)"/><path class="cls-1" d="M99.92,191.55v.06l-23-23-32.1,13.29s0,0,0,0l32.12-13.3Z" transform="translate(-2.59 -31.43)"/><path class="cls-1" d="M67.84,216.15l-.48-.48Z" transform="translate(-2.59 -31.43)"/><polygon class="cls-1" points="244.13 153.72 244.13 153.72 236.22 150.45 236.22 150.45 244.13 153.72"/><path class="cls-1" d="M213.56,218.31l-23.37,23.37H184v-3.85c.47-.2.93-.41,1.4-.63l.67-.32.51-.23c1.07-.5,2.13-1,3.18-1.57l.36-.2.67-.34.09,0,.58-.31.21-.12.36-.19.09-.06.3-.16c.55-.3,1.11-.61,1.66-.94l.31-.18c.5-.28,1-.58,1.5-.88l.08,0,0,0,.34-.2.53-.32L197,231l.95-.6q.24-.13.48-.3c.47-.3.94-.6,1.41-.92l1.55-1a2.73,2.73,0,0,0,.3-.21l.73-.52c.9-.63,1.8-1.28,2.68-1.95l.11-.09.11-.09.22-.16c.29-.22.59-.44.88-.68l.66-.53h0c.87-.68,1.74-1.4,2.59-2.13.29-.24.57-.48.85-.74l.39-.33.18-.16c.27-.22.53-.45.78-.68l.33-.31C212.67,219.14,213.11,218.73,213.56,218.31Z" transform="translate(-2.59 -31.43)"/><path class="cls-1" d="M218.43,213.44l28.29-28.29-7.91-3.28A105,105,0,0,1,218.43,213.44Z" transform="translate(-2.59 -31.43)"/><polygon class="cls-1" points="236.22 150.45 236.22 150.45 204.1 137.14 204.1 137.14 236.22 150.44 236.22 150.45"/><path class="cls-1" d="M238.81,181.87a105.21,105.21,0,0,1-20.67,31.86l.29-.29a105,105,0,0,0,20.38-31.57Z" transform="translate(-2.59 -31.43)"/><path class="cls-1" d="M213.56,218.31l.29-.29A104.94,104.94,0,0,1,184,237.82h0A105.18,105.18,0,0,0,213.56,218.31Z" transform="translate(-2.59 -31.43)"/><path class="cls-1" d="M238.81,181.87c-.31.74-.62,1.48-.95,2.21q-2,4.41-4.28,8.59c-.78,1.39-1.58,2.76-2.42,4.12a105.18,105.18,0,0,1-13,16.94L213.85,218l-1.64,1.52c-.56.5-1.12,1-1.68,1.48-1.13,1-2.27,1.93-3.44,2.87h0l-1.76,1.37-.11.09c-.92.69-1.85,1.38-2.79,2s-1.71,1.2-2.58,1.78c-.62.41-1.25.82-1.89,1.22s-1.27.8-1.91,1.18l-1.63,1-.31.18c-.65.37-1.3.74-2,1.1s-1.33.72-2,1.06c-1.33.7-2.69,1.36-4,2-.69.32-1.38.64-2.07.94V191.24l22.67-22.67Z" transform="translate(-2.59 -31.43)"/><path class="cls-1" d="M36.9,185.21l29.57,29.57a105.19,105.19,0,0,1-21.64-32.85Z" transform="translate(-2.59 -31.43)"/><path class="cls-1" d="M99.92,238v3.72H93.37L68.73,217l.85.81c.58.56,1.18,1.11,1.78,1.65l.91.82q.35.31.69.6l.22.19c.45.4.9.78,1.35,1.15l.9.74.17.15.33.26.17.14c.18.15.35.29.53.42l.29.23c.64.5,1.28,1,1.93,1.48l.64.49,1.06.76.26.19c.58.41,1.16.82,1.75,1.22l.25.17.52.37c.33.22.66.44,1,.65l.29.19.22.14.81.53c.32.21.64.41,1,.6l.28.17c.34.22.69.43,1,.64.61.37,1.23.73,1.84,1.08l1.34.74c.18.11.35.21.53.3,1.25.69,2.52,1.35,3.81,2l.36.18,1,.48.05,0,.81.38C98.42,237.3,99.17,237.63,99.92,238Z" transform="translate(-2.59 -31.43)"/><path class="cls-1" d="M99.92,238a105.19,105.19,0,0,1-32.08-21.8l.89.88A104.86,104.86,0,0,0,99.92,238Z" transform="translate(-2.59 -31.43)"/><path class="cls-1" d="M44.84,181.92h0a105.19,105.19,0,0,0,21.64,32.85l.89.89A105.33,105.33,0,0,1,44.84,181.92Z" transform="translate(-2.59 -31.43)"/><path class="cls-1" d="M99.92,191.61V238l-2.24-1-.81-.38-1.41-.68q-2.19-1.08-4.34-2.27c-1.43-.79-2.83-1.61-4.22-2.46l-.28-.17c-.6-.37-1.19-.75-1.78-1.13l-.22-.14-1.81-1.21-.25-.17c-.59-.4-1.17-.81-1.75-1.22l-.26-.19-1.7-1.25c-.65-.48-1.29-1-1.93-1.48l-.29-.23-.7-.56-.5-.41-.9-.74c-.46-.38-.91-.76-1.35-1.15l-.22-.19-1.6-1.42c-.6-.54-1.19-1.09-1.78-1.65s-1.17-1.12-1.74-1.69l-.48-.48c-.57-.58-1.14-1.16-1.7-1.75l-.14-.15c-.56-.59-1.11-1.19-1.65-1.79a105.76,105.76,0,0,1-13.39-18.54c-.42-.74-.83-1.49-1.24-2.24s-.79-1.51-1.18-2.27-.76-1.53-1.13-2.31c-.73-1.54-1.43-3.11-2.09-4.69h0l32.1-13.29Z" transform="translate(-2.59 -31.43)"/><path class="cls-1" d="M101.63,238.7l-1.23,3h-.06l1.24-3Z" transform="translate(-2.59 -31.43)"/><path class="cls-1" d="M183.32,241.68h-.09l-1.24-3,.08,0Z" transform="translate(-2.59 -31.43)"/><path class="cls-1" d="M184,174.26v63.56l-2,.83-.07,0c-2.67,1.11-5.41,2.1-8.19,3h-64c-2.08-.67-4.14-1.39-6.17-2.18h0c-.67-.27-1.34-.53-2-.81l0,0L99.92,238V174.26a5.68,5.68,0,0,1,5.69-5.69h72.72A5.69,5.69,0,0,1,184,174.26Z" transform="translate(-2.59 -31.43)"/><path class="cls-1" d="M101.64,238.69h0l0,0h0Z" transform="translate(-2.59 -31.43)"/><path class="cls-1" d="M182.07,238.66l-.08,0h0l.07,0Z" transform="translate(-2.59 -31.43)"/><path class="cls-1" d="M183.23,241.68h-9.38q4.16-1.34,8.14-3Z" transform="translate(-2.59 -31.43)"/><path class="cls-1" d="M109.78,241.68H100.4l1.23-3c.67.28,1.33.54,2,.8h0C105.66,240.29,107.71,241,109.78,241.68Z" transform="translate(-2.59 -31.43)"/><rect class="cls-1" x="99.4" y="240.19" width="3.23" transform="translate(-162.14 210.17) rotate(-67.5)"/><polygon class="cls-1" points="179.4 207.27 179.4 207.27 180.64 210.25 180.64 210.25 179.4 207.27"/><path class="cls-1" d="M103.64,239.5c-.68-.26-1.34-.52-2-.8h0C102.3,239,103,239.23,103.64,239.5Z" transform="translate(-2.59 -31.43)"/><path class="cls-1" d="M109.82,241.68h0c-2.07-.67-4.12-1.39-6.13-2.18C105.68,240.29,107.74,241,109.82,241.68Z" transform="translate(-2.59 -31.43)"/><path class="cls-1" d="M182,238.69h0q-4,1.65-8.14,3h0C176.58,240.79,179.32,239.8,182,238.69Z" transform="translate(-2.59 -31.43)"/><rect class="cls-1" x="101.63" y="238.69" width="0.01" transform="translate(-160.37 210.08) rotate(-67.56)"/><polygon class="cls-1" points="179.4 207.27 179.4 207.27 179.4 207.26 179.4 207.26 179.4 207.27"/><path class="cls-1" d="M184,237.83v3.85h-.7l-1.25-3Z" transform="translate(-2.59 -31.43)"/><path class="cls-1" d="M184,237.82h0l-2,.83h0Z" transform="translate(-2.59 -31.43)"/><path class="cls-1" d="M99.92,238v3.72h.42l1.24-3Z" transform="translate(-2.59 -31.43)"/><path class="cls-1" d="M101.59,238.66h0L99.92,238h0Z" transform="translate(-2.59 -31.43)"/><polyline class="cls-1" points="97.75 210.25 260.02 210.25 260.02 215.28 265.83 215.28 265.83 221.27 270.95 221.27 270.95 227.06 275.75 227.06 275.75 234.75 3 234.75 3 227.06 7.8 227.06 7.8 221.27 12.92 221.27 12.92 215.28 18.73 215.28 18.73 210.25 97.33 210.25"/><rect class="cls-1" x="182.7" y="215.24"/><line class="cls-1" x1="97.33" y1="210.25" x2="97.75" y2="210.25"/><line class="cls-1" x1="139.14" y1="137.14" x2="139.14" y2="210.25"/></svg>